# xmcd
#
# Track frame offsets:
#  150
#  47732
#  83058
#  101618
#  117352
#  148246
#  149839
#  195666
#  229346
#  258590
#
# Disc length: 3753 seconds
#
# Revision: 1
# Processed by: cddbd v1.5.2PL0 Copyright (c) Steve Scherf et al.
# Submitted via: Collectorz.com_Music_Collector 6.11
#
DISCID=990ea70a
DTITLE=Eric Clapton - Irving Plaza NYC (2CDs) [CD2)
DYEAR=1994
DGENRE=Blues
TTITLE0=Early In The Morning
TTITLE1=Everyday I Have The Blues
TTITLE2=Someday After A While
TTITLE3=Tore Down
TTITLE4=Have You Ever Loved A Woman
TTITLE5=Crosscut Saw
TTITLE6=Driffting Blues
TTITLE7=Five Long Years
TTITLE8=Crossroaads
TTITLE9=Groanin' The Blues
EXTD=
EXTT0=
EXTT1=
EXTT2=
EXTT3=
EXTT4=
EXTT5=
EXTT6=
EXTT7=
EXTT8=
EXTT9=
PLAYORDER=
